<?xml version="1.0" standalone="no"?>
<!DOCTYPE svg PUBLIC "-//W3C//DTD SVG 20010904//EN"
 "http://www.w3.org/TR/2001/REC-SVG-20010904/DTD/svg10.dtd">
<svg version="1.0" xmlns="http://www.w3.org/2000/svg"
 width="270.000000pt" height="268.000000pt" viewBox="0 0 270.000000 268.000000"
 preserveAspectRatio="xMidYMid meet">
<metadata>
Created by potrace 1.14, written by Peter Selinger 2001-2017
</metadata>
<g transform="translate(0.000000,268.000000) scale(0.100000,-0.100000)"
fill="#000000" stroke="none">
<path d="M827 2209 c-216 -23 -333 -146 -358 -376 -17 -157 -7 -1012 13 -1078
24 -80 52 -127 107 -178 114 -107 175 -116 751 -117 590 0 628 7 750 129 90
90 106 126 121 281 16 157 6 978 -13 1050 -26 101 -103 201 -189 246 -85 44
-121 47 -624 50 -264 1 -515 -2 -558 -7z m275 -418 l3 -70 105 64 c58 35 111
64 119 64 8 1 86 -43 175 -97 154 -94 208 -127 300 -181 22 -13 46 -30 53 -37
8 -7 31 -23 53 -35 22 -13 40 -27 40 -32 0 -7 -74 -141 -86 -155 -1 -2 -19 8
-40 22 -20 14 -41 23 -46 20 -4 -3 -8 -124 -8 -270 l0 -264 -430 0 -430 0 0
264 c0 166 -4 267 -10 271 -11 7 -70 -25 -70 -37 0 -4 -7 -8 -15 -8 -13 0
-101 122 -108 150 -1 5 43 38 98 73 l100 64 3 132 3 131 94 0 94 0 3 -69z"/>
</g>
</svg>
